<svg version="1.1" xmlns="http://www.w3.org/2000/svg" xmlns:xlink="http://www.w3.org/1999/xlink" x="0px" y="0px" width="800px" height="800px" viewBox="0 0 800 800" style="enable-background:new 0 0 800 800;" xml:space="preserve">
  <path id="service-symbol" d="M400,0C179.086,0,0,179.086,0,400c0,220.914,179.086,400,400,400C620.914,800,800,620.914,800,400C800,179.086,620.914,0,400,0z M400,766.5C197.588,766.5,33.5,602.412,33.5,400L400,766.5L766.5,400L400,33.5L33.5,400C33.5,197.588,197.588,33.5,400,33.5C602.413,33.5,766.5,197.588,766.5,400S602.413,766.5,400,766.5z"/>
</svg>
